<svg width="20" height="20" viewBox="0 0 20 20" fill="none" xmlns="http://www.w3.org/2000/svg">
<path fill-rule="evenodd" clip-rule="evenodd" d="M10.0001 2.29199C5.74442 2.29199 2.29175 5.75133 2.29175 10.0221C2.29175 13.9907 5.27392 17.2596 9.11055 17.7013C9.49591 17.7457 9.90844 17.584 10.2382 17.2534C10.5395 16.9513 10.5395 16.461 10.2382 16.159C9.9783 15.8983 9.71762 15.551 9.57503 15.1564C9.42894 14.752 9.39283 14.2447 9.68921 13.7733C9.95832 13.3453 10.3618 13.1162 10.7852 13.0048C11.1928 12.8975 11.6445 12.8914 12.0784 12.9178C12.4818 12.9422 12.916 12.9985 13.3372 13.0531C13.3727 13.0577 13.4081 13.0623 13.4434 13.0669C13.9075 13.1268 14.3607 13.1826 14.7985 13.2036C15.6937 13.2465 16.3833 13.1336 16.8546 12.7484C17.3056 12.3796 17.7084 11.631 17.7084 10.0221C17.7084 5.75133 14.2557 2.29199 10.0001 2.29199ZM1.04175 10.0221C1.04175 5.06405 5.05099 1.04199 10.0001 1.04199C14.9492 1.04199 18.9584 5.06405 18.9584 10.0221C18.9584 11.8098 18.511 13.0087 17.6458 13.7161C16.8008 14.4069 15.708 14.4986 14.7386 14.4522C14.2442 14.4285 13.7446 14.3661 13.2833 14.3066C13.251 14.3024 13.2188 14.2982 13.1869 14.2941C12.7539 14.238 12.3613 14.1872 12.0027 14.1655C11.6143 14.1419 11.3191 14.1568 11.1033 14.2136C10.9032 14.2663 10.8068 14.3443 10.7474 14.4387C10.7151 14.4901 10.6923 14.5701 10.7507 14.7316C10.8125 14.9028 10.9474 15.0999 11.1233 15.2762C11.9111 16.0661 11.9111 17.3462 11.1233 18.1361C10.5814 18.6794 9.8069 19.0397 8.96759 18.9431C4.50479 18.4293 1.04175 14.6305 1.04175 10.0221ZM7.98758 5.20847C7.64241 5.20847 7.36258 5.48829 7.36258 5.83347C7.36258 6.17865 7.64241 6.45847 7.98758 6.45847C8.33276 6.45847 8.61258 6.17865 8.61258 5.83347C8.61258 5.48829 8.33276 5.20847 7.98758 5.20847ZM6.11258 5.83347C6.11258 4.79793 6.95205 3.95847 7.98758 3.95847C9.02312 3.95847 9.86258 4.79793 9.86258 5.83347C9.86258 6.869 9.02312 7.70847 7.98758 7.70847C6.95205 7.70847 6.11258 6.869 6.11258 5.83347ZM12.0834 5.20866C11.7382 5.20866 11.4584 5.48848 11.4584 5.83366C11.4584 6.17884 11.7382 6.45866 12.0834 6.45866C12.4286 6.45866 12.7084 6.17884 12.7084 5.83366C12.7084 5.48848 12.4286 5.20866 12.0834 5.20866ZM10.2084 5.83366C10.2084 4.79812 11.0479 3.95866 12.0834 3.95866C13.1189 3.95866 13.9584 4.79812 13.9584 5.83366C13.9584 6.86919 13.1189 7.70866 12.0834 7.70866C11.0479 7.70866 10.2084 6.86919 10.2084 5.83366ZM5.41675 8.95866C5.07157 8.95866 4.79175 9.23848 4.79175 9.58366C4.79175 9.92884 5.07157 10.2087 5.41675 10.2087C5.76193 10.2087 6.04175 9.92884 6.04175 9.58366C6.04175 9.23848 5.76193 8.95866 5.41675 8.95866ZM3.54175 9.58366C3.54175 8.54812 4.38121 7.70866 5.41675 7.70866C6.45228 7.70866 7.29175 8.54812 7.29175 9.58366C7.29175 10.6192 6.45228 11.4587 5.41675 11.4587C4.38121 11.4587 3.54175 10.6192 3.54175 9.58366ZM14.5834 8.95866C14.2382 8.95866 13.9584 9.23848 13.9584 9.58366C13.9584 9.92884 14.2382 10.2087 14.5834 10.2087C14.9286 10.2087 15.2084 9.92884 15.2084 9.58366C15.2084 9.23848 14.9286 8.95866 14.5834 8.95866ZM12.7084 9.58366C12.7084 8.54812 13.5479 7.70866 14.5834 7.70866C15.6189 7.70866 16.4584 8.54812 16.4584 9.58366C16.4584 10.6192 15.6189 11.4587 14.5834 11.4587C13.5479 11.4587 12.7084 10.6192 12.7084 9.58366Z" fill="#2C2D3A"/>
</svg>

