<svg width="20" height="20" viewBox="0 0 20 20" fill="none" xmlns="http://www.w3.org/2000/svg">
<path fill-rule="evenodd" clip-rule="evenodd" d="M10.0001 6.87467C8.27419 6.87467 6.87508 8.27378 6.87508 9.99967C6.87508 11.7256 8.27419 13.1247 10.0001 13.1247C11.726 13.1247 13.1251 11.7256 13.1251 9.99967C13.1251 8.27378 11.726 6.87467 10.0001 6.87467ZM8.12508 9.99967C8.12508 8.96414 8.96455 8.12467 10.0001 8.12467C11.0356 8.12467 11.8751 8.96414 11.8751 9.99967C11.8751 11.0352 11.0356 11.8747 10.0001 11.8747C8.96455 11.8747 8.12508 11.0352 8.12508 9.99967Z" fill="#2C2D3A"/>
<path fill-rule="evenodd" clip-rule="evenodd" d="M10.0001 2.70801C6.2383 2.70801 3.70449 4.96151 2.23389 6.87206L2.20737 6.90651C1.87478 7.33845 1.56846 7.73628 1.36065 8.20667C1.13812 8.7104 1.04175 9.25942 1.04175 9.99967C1.04175 10.7399 1.13812 11.2889 1.36065 11.7927C1.56847 12.2631 1.87478 12.6609 2.20737 13.0928L2.23389 13.1273C3.70449 15.0378 6.23831 17.2913 10.0001 17.2913C13.7619 17.2913 16.2957 15.0378 17.7663 13.1273L17.7928 13.0929C18.1254 12.6609 18.4317 12.2631 18.6395 11.7927C18.862 11.2889 18.9584 10.7399 18.9584 9.99967C18.9584 9.25942 18.862 8.7104 18.6395 8.20667C18.4317 7.73627 18.1254 7.33844 17.7928 6.90649L17.7663 6.87206C16.2957 4.96151 13.7619 2.70801 10.0001 2.70801ZM3.22443 7.63451C4.58228 5.87044 6.79205 3.95801 10.0001 3.95801C13.2081 3.95801 15.4179 5.87044 16.7757 7.63451C17.1412 8.10933 17.3553 8.39305 17.4961 8.7118C17.6277 9.00969 17.7084 9.37379 17.7084 9.99967C17.7084 10.6256 17.6277 10.9897 17.4961 11.2876C17.3553 11.6063 17.1412 11.89 16.7757 12.3648C15.4179 14.1289 13.2081 16.0413 10.0001 16.0413C6.79205 16.0413 4.58228 14.1289 3.22443 12.3648C2.85894 11.89 2.64486 11.6063 2.50405 11.2876C2.37245 10.9897 2.29175 10.6256 2.29175 9.99967C2.29175 9.37379 2.37245 9.00969 2.50405 8.7118C2.64486 8.39306 2.85894 8.10933 3.22443 7.63451Z" fill="#2C2D3A"/>
</svg>

