<svg width="20" height="20" viewBox="0 0 20 20" fill="none" xmlns="http://www.w3.org/2000/svg">
<path fill-rule="evenodd" clip-rule="evenodd" d="M10.0001 1.04199C5.05253 1.04199 1.04175 5.05277 1.04175 10.0003C1.04175 14.9479 5.05253 18.9587 10.0001 18.9587C14.9476 18.9587 18.9584 14.9479 18.9584 10.0003C18.9584 5.05277 14.9476 1.04199 10.0001 1.04199ZM2.29175 10.0003C2.29175 5.74313 5.74289 2.29199 10.0001 2.29199C11.9038 2.29199 13.6464 2.98213 14.9912 4.12587C14.9857 4.13104 14.9802 4.13632 14.9748 4.14172L4.14149 14.9749C4.13606 14.9803 4.13074 14.9858 4.12555 14.9914C2.98186 13.6466 2.29175 11.904 2.29175 10.0003ZM5.00883 15.8747C6.35368 17.0185 8.09628 17.7087 10.0001 17.7087C14.2573 17.7087 17.7084 14.2575 17.7084 10.0003C17.7084 8.09657 17.0183 6.35401 15.8745 5.00918C15.8694 5.01473 15.8641 5.02021 15.8587 5.02561L5.02537 15.8587C5.01993 15.8642 5.01441 15.8695 5.00883 15.8747Z" fill="#F44336"/>
</svg>
