<svg width="20" height="20" viewBox="0 0 20 20" fill="none" xmlns="http://www.w3.org/2000/svg">
<path fill-rule="evenodd" clip-rule="evenodd" d="M9.99992 1.04199C7.81379 1.04199 6.04159 2.8142 6.04159 5.00033C6.04159 7.18645 7.81379 8.95866 9.99992 8.95866C12.186 8.95866 13.9583 7.18645 13.9583 5.00033C13.9583 2.8142 12.186 1.04199 9.99992 1.04199ZM7.29159 5.00033C7.29159 3.50455 8.50415 2.29199 9.99992 2.29199C11.4957 2.29199 12.7083 3.50455 12.7083 5.00033C12.7083 6.4961 11.4957 7.70866 9.99992 7.70866C8.50415 7.70866 7.29159 6.4961 7.29159 5.00033Z" fill="#2C2D3A"/>
<path d="M14.9999 2.70866C14.6547 2.70866 14.3749 2.98848 14.3749 3.33366C14.3749 3.67884 14.6547 3.95866 14.9999 3.95866C16.147 3.95866 16.8749 4.71343 16.8749 5.41699C16.8749 6.12055 16.147 6.87533 14.9999 6.87533C14.6547 6.87533 14.3749 7.15515 14.3749 7.50033C14.3749 7.8455 14.6547 8.12533 14.9999 8.12533C16.6143 8.12533 18.1249 7.01462 18.1249 5.41699C18.1249 3.81936 16.6143 2.70866 14.9999 2.70866Z" fill="#2C2D3A"/>
<path d="M5.62492 3.33366C5.62492 2.98848 5.3451 2.70866 4.99992 2.70866C3.38557 2.70866 1.87492 3.81936 1.87492 5.41699C1.87492 7.01462 3.38557 8.12533 4.99992 8.12533C5.3451 8.12533 5.62492 7.8455 5.62492 7.50033C5.62492 7.15515 5.3451 6.87533 4.99992 6.87533C3.85285 6.87533 3.12492 6.12055 3.12492 5.41699C3.12492 4.71343 3.85285 3.95866 4.99992 3.95866C5.3451 3.95866 5.62492 3.67884 5.62492 3.33366Z" fill="#2C2D3A"/>
<path fill-rule="evenodd" clip-rule="evenodd" d="M9.99992 10.2087C8.51303 10.2087 7.13863 10.6093 6.1177 11.2899C5.10114 11.9676 4.37492 12.9725 4.37492 14.167C4.37492 15.3615 5.10114 16.3663 6.1177 17.044C7.13863 17.7247 8.51303 18.1253 9.99992 18.1253C11.4868 18.1253 12.8612 17.7247 13.8821 17.044C14.8987 16.3663 15.6249 15.3615 15.6249 14.167C15.6249 12.9725 14.8987 11.9676 13.8821 11.2899C12.8612 10.6093 11.4868 10.2087 9.99992 10.2087ZM5.62492 14.167C5.62492 13.5205 6.01799 12.8587 6.81107 12.33C7.59979 11.8042 8.72539 11.4587 9.99992 11.4587C11.2745 11.4587 12.4001 11.8042 13.1888 12.33C13.9818 12.8587 14.3749 13.5205 14.3749 14.167C14.3749 14.8135 13.9818 15.4753 13.1888 16.004C12.4001 16.5298 11.2745 16.8753 9.99992 16.8753C8.72539 16.8753 7.59979 16.5298 6.81107 16.004C6.01799 15.4753 5.62492 14.8135 5.62492 14.167Z" fill="#2C2D3A"/>
<path d="M16.0561 11.5331C16.13 11.1959 16.4633 10.9826 16.8005 11.0565C17.602 11.2323 18.3243 11.5498 18.8606 11.9886C19.3964 12.427 19.7916 13.0297 19.7916 13.7503C19.7916 14.471 19.3964 15.0736 18.8606 15.5121C18.3243 15.9509 17.602 16.2684 16.8005 16.4442C16.4633 16.5181 16.13 16.3047 16.0561 15.9675C15.9822 15.6304 16.1955 15.2971 16.5327 15.2232C17.193 15.0784 17.7207 14.8296 18.069 14.5447C18.4177 14.2593 18.5416 13.9806 18.5416 13.7503C18.5416 13.5201 18.4177 13.2414 18.069 12.956C17.7207 12.671 17.193 12.4223 16.5327 12.2775C16.1955 12.2035 15.9822 11.8703 16.0561 11.5331Z" fill="#2C2D3A"/>
<path d="M3.19937 11.0565C3.53654 10.9826 3.86981 11.1959 3.94375 11.5331C4.01768 11.8703 3.8043 12.2035 3.46713 12.2775C2.80683 12.4223 2.27913 12.671 1.93085 12.956C1.58211 13.2414 1.45825 13.5201 1.45825 13.7503C1.45825 13.9806 1.58211 14.2593 1.93085 14.5447C2.27913 14.8296 2.80683 15.0784 3.46713 15.2232C3.8043 15.2971 4.01768 15.6304 3.94375 15.9675C3.86981 16.3047 3.53654 16.5181 3.19937 16.4442C2.39781 16.2684 1.6755 15.9509 1.13925 15.5121C0.603459 15.0736 0.208252 14.471 0.208252 13.7503C0.208252 13.0297 0.603459 12.427 1.13925 11.9886C1.6755 11.5498 2.39781 11.2323 3.19937 11.0565Z" fill="#2C2D3A"/>
</svg>
