<svg width="20" height="20" viewBox="0 0 20 20" fill="none" xmlns="http://www.w3.org/2000/svg">
<path d="M6.13209 15.875L6.03355 15.609L5.75466 15.5572C5.12946 15.4409 4.50785 15.2987 3.89145 15.1306C2.28854 14.6934 1.58497 12.8144 2.50658 11.432L3.46375 9.9962C3.84065 9.43083 4.04178 8.76656 4.04178 8.08708V7.50033C4.04178 4.20963 6.70942 1.54199 10.0001 1.54199C13.2908 1.54199 15.9584 4.20963 15.9584 7.50033V8.08708C15.9584 8.76656 16.1596 9.43084 16.5365 9.9962L17.4937 11.432C18.4153 12.8144 17.7117 14.6934 16.1088 15.1306C15.4923 15.2987 14.8707 15.4409 14.2455 15.5572L13.9665 15.6091L13.868 15.8751L13.8671 15.8775C13.867 15.8778 13.8669 15.8781 13.8668 15.8784C13.3017 17.385 11.7812 18.4587 10.0001 18.4587C8.21852 18.4587 6.6978 17.3845 6.13301 15.8775L6.13209 15.875ZM13.2242 16.5668L13.8605 15.6525L12.7545 15.7847C10.9247 16.0033 9.07536 16.0033 7.24564 15.7846L6.13965 15.6525L6.77593 16.5667C7.46225 17.5529 8.64629 18.2087 10.0001 18.2087C11.3538 18.2087 12.5379 17.5529 13.2242 16.5668ZM10.0001 1.79199C6.84749 1.79199 4.29178 4.3477 4.29178 7.50033V8.08708C4.29178 8.81591 4.07604 9.52844 3.67176 10.1349L2.71459 11.5706C1.88764 12.8111 2.51895 14.4971 3.95722 14.8894C7.91357 15.9684 12.0867 15.9684 16.043 14.8894C17.4813 14.4971 18.1126 12.8111 17.2856 11.5706L16.3285 10.1349C15.9242 9.52844 15.7084 8.81591 15.7084 8.08708V7.50033C15.7084 4.3477 13.1527 1.79199 10.0001 1.79199Z" fill="#2C2D3A" stroke="black"/>
</svg>
