<svg width="20" height="20" viewBox="0 0 20 20" fill="none" xmlns="http://www.w3.org/2000/svg">
<path fill-rule="evenodd" clip-rule="evenodd" d="M15.3741 1.65697C16.194 0.837001 17.5235 0.837001 18.3434 1.65697C19.1634 2.47693 19.1634 3.80636 18.3434 4.62633L14.8004 8.16937C14.7919 8.17787 14.7835 8.18625 14.7752 8.19453C14.5829 8.38694 14.449 8.52086 14.2989 8.63797C14.1223 8.77568 13.9313 8.89374 13.7292 8.99007C13.5573 9.07199 13.3776 9.13184 13.1195 9.21784C13.1084 9.22154 13.0971 9.22528 13.0857 9.22908L11.5545 9.7395C11.187 9.86199 10.7819 9.76635 10.508 9.49245C10.234 9.21854 10.1384 8.81339 10.2609 8.44591L10.7713 6.91466C10.7751 6.90326 10.7789 6.89202 10.7826 6.88092C10.8686 6.62279 10.9284 6.44314 11.0103 6.27124C11.1067 6.06912 11.2247 5.87809 11.3624 5.70154C11.4795 5.55139 11.6135 5.41751 11.8059 5.22516C11.8141 5.21688 11.8225 5.20851 11.831 5.20001L15.3741 1.65697ZM17.4595 2.54085C17.1277 2.20904 16.5898 2.20904 16.258 2.54085L16.1482 2.65061C16.1525 2.66415 16.1571 2.67809 16.1621 2.6924C16.2302 2.88877 16.3597 3.149 16.6055 3.39487C16.8514 3.64073 17.1116 3.77018 17.308 3.83831C17.3223 3.84327 17.3363 3.8479 17.3498 3.85221L17.4595 3.74245C17.7914 3.41063 17.7914 2.87266 17.4595 2.54085ZM16.4048 4.79714C16.1829 4.67268 15.9477 4.50484 15.7216 4.27875C15.4956 4.05266 15.3277 3.81754 15.2033 3.59555L12.7149 6.0839C12.4881 6.31075 12.4121 6.38828 12.3481 6.47032C12.2662 6.57528 12.196 6.68885 12.1387 6.80901C12.094 6.90294 12.0586 7.00559 11.9572 7.30994L11.7694 7.87319L12.1272 8.23098L12.6905 8.04323C12.9948 7.94178 13.0975 7.90642 13.1914 7.86166C13.3115 7.80439 13.4251 7.7342 13.5301 7.65234C13.6121 7.58835 13.6897 7.51234 13.9165 7.28549L16.4048 4.79714Z" fill="#2C2D3A"/>
<path fill-rule="evenodd" clip-rule="evenodd" d="M10.0001 1.04199L9.95227 1.04199C8.0286 1.04198 6.52107 1.04197 5.34484 1.20011C4.14089 1.36198 3.19087 1.69976 2.4452 2.44544C1.69952 3.19111 1.36174 4.14113 1.19987 5.34508C1.04173 6.52132 1.04174 8.02885 1.04175 9.95251V10.0481C1.04174 11.9718 1.04173 13.4793 1.19987 14.6556C1.36174 15.8595 1.69952 16.8095 2.4452 17.5552C3.19087 18.3009 4.14089 18.6387 5.34484 18.8005C6.52108 18.9587 8.02861 18.9587 9.95227 18.9587H10.0479C11.9716 18.9587 13.4791 18.9587 14.6553 18.8005C15.8593 18.6387 16.8093 18.3009 17.555 17.5552C18.3006 16.8095 18.6384 15.8595 18.8003 14.6556C18.9584 13.4793 18.9584 11.9718 18.9584 10.0481V10.0003C18.9584 9.65515 18.6786 9.37533 18.3334 9.37533C17.9882 9.37533 17.7084 9.65515 17.7084 10.0003C17.7084 11.9822 17.7071 13.4057 17.5614 14.489C17.5557 14.5317 17.5497 14.5738 17.5436 14.6152L15.2319 12.5347C14.1491 11.5601 12.5365 11.4631 11.3445 12.3007L11.096 12.4754C10.6819 12.7664 10.1185 12.7176 9.76053 12.3597L6.18576 8.78493C5.23959 7.83876 3.72186 7.78822 2.71484 8.66935L2.29256 9.03884C2.29635 7.54528 2.31778 6.41118 2.43872 5.51164C2.58195 4.4463 2.85436 3.80404 3.32908 3.32932C3.80379 2.85461 4.44606 2.5822 5.5114 2.43897C6.59471 2.29332 8.01823 2.29199 10.0001 2.29199C10.3453 2.29199 10.6251 2.01217 10.6251 1.66699C10.6251 1.32181 10.3453 1.04199 10.0001 1.04199ZM2.43872 14.489C2.58195 15.5543 2.85436 16.1966 3.32908 16.6713C3.80379 17.146 4.44606 17.4185 5.5114 17.5617C6.59471 17.7073 8.01823 17.7087 10.0001 17.7087C11.9819 17.7087 13.4055 17.7073 14.4888 17.5617C15.5541 17.4185 16.1964 17.146 16.6711 16.6713C16.874 16.4684 17.04 16.2348 17.1747 15.9507C17.1423 15.9309 17.1112 15.9078 17.082 15.8815L14.3957 13.4638C13.746 12.8791 12.7784 12.8208 12.0633 13.3234L11.8148 13.4981C10.9037 14.1384 9.6641 14.031 8.87665 13.2436L5.30188 9.66881C4.82104 9.18797 4.04973 9.16229 3.53797 9.61008L2.29207 10.7002C2.29421 12.324 2.31082 13.5377 2.43872 14.489Z" fill="#2C2D3A"/>
</svg>
