<svg width="20" height="20" viewBox="0 0 20 20" fill="none" xmlns="http://www.w3.org/2000/svg">
<path d="M10.0001 5.20866C10.3453 5.20866 10.6251 5.48848 10.6251 5.83366V10.8337C10.6251 11.1788 10.3453 11.4587 10.0001 11.4587C9.6549 11.4587 9.37508 11.1788 9.37508 10.8337V5.83366C9.37508 5.48848 9.6549 5.20866 10.0001 5.20866Z" fill="#F44336"/>
<path d="M10.0001 14.167C10.4603 14.167 10.8334 13.7939 10.8334 13.3337C10.8334 12.8734 10.4603 12.5003 10.0001 12.5003C9.53984 12.5003 9.16675 12.8734 9.16675 13.3337C9.16675 13.7939 9.53984 14.167 10.0001 14.167Z" fill="#F44336"/>
<path fill-rule="evenodd" clip-rule="evenodd" d="M1.04175 10.0003C1.04175 5.05277 5.05253 1.04199 10.0001 1.04199C14.9476 1.04199 18.9584 5.05277 18.9584 10.0003C18.9584 14.9479 14.9476 18.9587 10.0001 18.9587C5.05253 18.9587 1.04175 14.9479 1.04175 10.0003ZM10.0001 2.29199C5.74289 2.29199 2.29175 5.74313 2.29175 10.0003C2.29175 14.2575 5.74289 17.7087 10.0001 17.7087C14.2573 17.7087 17.7084 14.2575 17.7084 10.0003C17.7084 5.74313 14.2573 2.29199 10.0001 2.29199Z" fill="#F44336"/>
</svg>

